# xmcd
#
# Track frame offsets: 
#        150
#        17275
#        35558
#        60300
#        78974
#        101375
#        117266
#        134737
#        157007
#        177558
#        196852
#        213068
#        240007
#        258621
#        276417
#        292662
#
# Disc length: 4118 seconds
#
# Revision: 1
# Processed by: cddbd v1.5.2PL0 Copyright (c) Steve Scherf et al.
# Submitted via: ExactAudioCopyFreeDBPlugin 1.0
#
DISCID=d2101410
DTITLE=Various Artist - Pure Swing 2013
DYEAR=2013
DGENRE=R&B
TTITLE0=R. Kelly - She's Got That Vibe
TTITLE1=Johnny Gill - Rub You The Right Way
TTITLE2=Bell Biv Devoe - Poison
TTITLE3=Pebbles - Girlfriend
TTITLE4=Tony! Toni! Toné! - Feels Good
TTITLE5=Johnny Kemp - Just Got Paid
TTITLE6=Boys II Men - Motownphilly
TTITLE7=Ralph Tresvant - Yo, Baby, Yo!
TTITLE8=Bobby Brown - My Prerogative
TTITLE9=Teddy Riley - Is It Good To You (feat. Tammy Lucas)
TTITLE10=Wreckx-N-Effect - New Jack Swing
TTITLE11=Keith Sweat - I Want Her
TTITLE12=Mac Band - Roses Are Red (feat. The McCampbell Brothers)
TTITLE13=Joe Public - Live And Learn
TTITLE14=Lucy Pearl - Don't Mess With My Man
TTITLE15=Guy - Teddy's Jam
EXTD=
EXTT0=
EXTT1=
EXTT2=
EXTT3=
EXTT4=
EXTT5=
EXTT6=
EXTT7=
EXTT8=
EXTT9=
EXTT10=
EXTT11=
EXTT12=
EXTT13=
EXTT14=
EXTT15=
PLAYORDER=
